<svg width="33" height="32" viewBox="0 0 33 32" fill="none" xmlns="http://www.w3.org/2000/svg">
<path d="M16.7931 2.88125C21.0681 2.88125 21.5744 2.9 23.2556 2.975C24.8181 3.04375 25.6619 3.30625 26.2244 3.525C26.9681 3.8125 27.5056 4.1625 28.0619 4.71875C28.6244 5.28125 28.9681 5.8125 29.2556 6.55625C29.4744 7.11875 29.7369 7.96875 29.8056 9.525C29.8806 11.2125 29.8994 11.7187 29.8994 15.9875C29.8994 20.2625 29.8806 20.7688 29.8056 22.45C29.7369 24.0125 29.4744 24.8563 29.2556 25.4188C28.9681 26.1625 28.6181 26.7 28.0619 27.2562C27.4994 27.8187 26.9681 28.1625 26.2244 28.45C25.6619 28.6688 24.8119 28.9312 23.2556 29C21.5681 29.075 21.0619 29.0937 16.7931 29.0937C12.5181 29.0937 12.0119 29.075 10.3306 29C8.76811 28.9312 7.92436 28.6688 7.36186 28.45C6.61811 28.1625 6.08061 27.8125 5.52436 27.2562C4.96186 26.6937 4.61811 26.1625 4.33061 25.4188C4.11186 24.8563 3.84936 24.0063 3.78061 22.45C3.70561 20.7625 3.68686 20.2562 3.68686 15.9875C3.68686 11.7125 3.70561 11.2062 3.78061 9.525C3.84936 7.9625 4.11186 7.11875 4.33061 6.55625C4.61811 5.8125 4.96811 5.275 5.52436 4.71875C6.08686 4.15625 6.61811 3.8125 7.36186 3.525C7.92436 3.30625 8.77436 3.04375 10.3306 2.975C12.0119 2.9 12.5181 2.88125 16.7931 2.88125ZM16.7931 0C12.4494 0 11.9056 0.01875 10.1994 0.09375C8.49936 0.16875 7.33061 0.44375 6.31811 0.8375C5.26186 1.25 4.36811 1.79375 3.48061 2.6875C2.58686 3.575 2.04311 4.46875 1.63061 5.51875C1.23686 6.5375 0.961856 7.7 0.886856 9.4C0.811856 11.1125 0.793106 11.6562 0.793106 16C0.793106 20.3437 0.811856 20.8875 0.886856 22.5937C0.961856 24.2937 1.23686 25.4625 1.63061 26.475C2.04311 27.5312 2.58686 28.425 3.48061 29.3125C4.36811 30.2 5.26186 30.75 6.31186 31.1562C7.33061 31.55 8.49311 31.825 10.1931 31.9C11.8994 31.975 12.4431 31.9937 16.7869 31.9937C21.1306 31.9937 21.6744 31.975 23.3806 31.9C25.0806 31.825 26.2494 31.55 27.2619 31.1562C28.3119 30.75 29.2056 30.2 30.0931 29.3125C30.9806 28.425 31.5306 27.5313 31.9369 26.4813C32.3306 25.4625 32.6056 24.3 32.6806 22.6C32.7556 20.8937 32.7744 20.35 32.7744 16.0063C32.7744 11.6625 32.7556 11.1187 32.6806 9.4125C32.6056 7.7125 32.3306 6.54375 31.9369 5.53125C31.5431 4.46875 30.9994 3.575 30.1056 2.6875C29.2181 1.8 28.3244 1.25 27.2744 0.84375C26.2556 0.45 25.0931 0.175 23.3931 0.1C21.6806 0.01875 21.1369 0 16.7931 0Z" fill="white"/>
<path d="M16.7931 7.78125C12.2556 7.78125 8.57436 11.4625 8.57436 16C8.57436 20.5375 12.2556 24.2188 16.7931 24.2188C21.3306 24.2188 25.0119 20.5375 25.0119 16C25.0119 11.4625 21.3306 7.78125 16.7931 7.78125ZM16.7931 21.3312C13.8494 21.3312 11.4619 18.9438 11.4619 16C11.4619 13.0563 13.8494 10.6687 16.7931 10.6687C19.7369 10.6687 22.1244 13.0563 22.1244 16C22.1244 18.9438 19.7369 21.3312 16.7931 21.3312Z" fill="white"/>
<path d="M27.2556 7.45586C27.2556 8.51836 26.3931 9.37461 25.3369 9.37461C24.2744 9.37461 23.4181 8.51211 23.4181 7.45586C23.4181 6.39336 24.2806 5.53711 25.3369 5.53711C26.3931 5.53711 27.2556 6.39961 27.2556 7.45586Z" fill="white"/>
</svg>
