<svg width="32" height="32" viewBox="0 0 32 32" fill="none" xmlns="http://www.w3.org/2000/svg">
<path d="M29.1957 0H2.86725C1.60604 0 0.586212 1.03125 0.586212 2.30625V29.6875C0.586212 30.9625 1.60604 32 2.86725 32H29.1957C30.4569 32 31.4828 30.9625 31.4828 29.6938V2.30625C31.4828 1.03125 30.4569 0 29.1957 0ZM9.75259 27.2687H5.16639V11.9937H9.75259V27.2687ZM7.45949 9.9125C5.98707 9.9125 4.79828 8.68125 4.79828 7.1625C4.79828 5.64375 5.98707 4.4125 7.45949 4.4125C8.92587 4.4125 10.1147 5.64375 10.1147 7.1625C10.1147 8.675 8.92587 9.9125 7.45949 9.9125ZM26.9147 27.2687H22.3345V19.8438C22.3345 18.075 22.3043 15.7937 19.9509 15.7937C17.5672 15.7937 17.2052 17.725 17.2052 19.7188V27.2687H12.631V11.9937H17.0241V14.0813H17.0845C17.694 12.8813 19.1905 11.6125 21.4172 11.6125C26.0578 11.6125 26.9147 14.775 26.9147 18.8875V27.2687V27.2687Z" fill="white"/>
</svg>
