<svg width="33" height="24" viewBox="0 0 33 24" fill="none" xmlns="http://www.w3.org/2000/svg">
<path d="M31.8881 5.60039C31.8881 5.60039 31.5756 3.39414 30.6131 2.42539C29.3944 1.15039 28.0319 1.14414 27.4069 1.06914C22.9319 0.74414 16.2131 0.744141 16.2131 0.744141H16.2006C16.2006 0.744141 9.48189 0.74414 5.00689 1.06914C4.38189 1.14414 3.01939 1.15039 1.80064 2.42539C0.838144 3.39414 0.531894 5.60039 0.531894 5.60039C0.531894 5.60039 0.206894 8.19414 0.206894 10.7816V13.2066C0.206894 15.7941 0.525644 18.3879 0.525644 18.3879C0.525644 18.3879 0.838144 20.5941 1.79439 21.5629C3.01314 22.8379 4.61314 22.7941 5.32564 22.9316C7.88814 23.1754 16.2069 23.2504 16.2069 23.2504C16.2069 23.2504 22.9319 23.2379 27.4069 22.9191C28.0319 22.8441 29.3944 22.8379 30.6131 21.5629C31.5756 20.5941 31.8881 18.3879 31.8881 18.3879C31.8881 18.3879 32.2069 15.8004 32.2069 13.2066V10.7816C32.2069 8.19414 31.8881 5.60039 31.8881 5.60039ZM12.9006 16.1504V7.15664L21.5444 11.6691L12.9006 16.1504Z" fill="white"/>
</svg>
