<svg width="20px" height="20px" viewBox="0 0 16 16" version="1.1" xmlns="http://www.w3.org/2000/svg" xmlns:xlink="http://www.w3.org/1999/xlink" aria-labelledby="globe-icon">
	<g id="Symbols" stroke="none" stroke-width="1" fill="none" fill-rule="evenodd">
		<g id="ICONS" transform="translate(-71.000000, -18.000000)" fill="#fff">
			<path d="M86.0804364,27.098 L83.1703537,27.098 C83.2212861,26.3668859 83.2212861,25.6331141 83.1703537,24.902 L86.0804364,24.902 C86.1929794,25.6296745 86.1929794,26.3703255 86.0804364,27.098 L86.0804364,27.098 Z M84.8474014,30.131 L82.6223382,30.131 C82.8420877,29.4137657 82.9983603,28.6786027 83.0893514,27.934 L85.8964312,27.934 C85.6751869,28.721015 85.3203473,29.4641614 84.8474014,30.131 L84.8474014,30.131 Z M81.245299,32.801 C81.6593108,32.314 82.0223211,31.692 82.3213296,30.967 L84.1553817,30.967 C83.3483946,31.8054471 82.3497012,32.4351895 81.245299,32.802 L81.245299,32.801 Z M79.4182471,33.104 L79.4182471,30.967 L81.4043036,30.967 C80.8802887,32.109 80.1852689,32.892 79.4182471,33.104 Z M79.4182471,27.934 L82.2413273,27.934 C82.1422825,28.6807369 81.9725149,29.4163754 81.7343129,30.131 L79.4182471,30.131 L79.4182471,27.934 L79.4182471,27.934 Z M79.4182471,24.902 L82.3313299,24.902 C82.3866728,25.632954 82.3866728,26.367046 82.3313299,27.098 L79.4182471,27.098 L79.4182471,24.902 L79.4182471,24.902 Z M79.4182471,21.869 L81.7343129,21.869 C81.9593193,22.53 82.1323243,23.272 82.2413273,24.065 L79.4182471,24.065 L79.4182471,21.87 L79.4182471,21.869 Z M79.4182471,18.896 C80.1852689,19.108 80.8802887,19.891 81.4043036,21.033 L79.4182471,21.033 L79.4182471,18.896 L79.4182471,18.896 Z M84.1553817,21.033 L82.3203296,21.033 C82.0223211,20.307 81.6583108,19.686 81.244299,19.199 C82.348687,19.5653404 83.3474125,20.1947598 84.1543817,21.033 L84.1553817,21.033 Z M84.8474014,21.869 C85.3144147,22.528 85.6724248,23.269 85.8974312,24.065 L83.0893514,24.065 C82.9893486,23.279 82.8323441,22.541 82.6223382,21.869 L84.8474014,21.869 Z M78.5822234,21.033 L76.5961669,21.033 C77.1201818,19.89 77.8162016,19.108 78.5822234,18.896 L78.5822234,21.033 L78.5822234,21.033 Z M78.5822234,24.065 L75.7591432,24.065 C75.8681463,23.272 76.0411512,22.53 76.2651575,21.869 L78.5822234,21.869 L78.5822234,24.065 L78.5822234,24.065 Z M78.5822234,26 L78.5822234,27.098 L75.6691406,27.098 C75.6134868,26.3670578 75.6134868,25.6329422 75.6691406,24.902 L78.5822234,24.902 L78.5822234,26 L78.5822234,26 Z M78.5822234,30.13 L76.2661576,30.13 C76.0280983,29.4156767 75.8583332,28.6803837 75.7591432,27.934 L78.5822234,27.934 L78.5822234,30.131 L78.5822234,30.13 Z M78.5822234,33.104 C77.8152016,32.892 77.1201818,32.108 76.5961669,30.967 L78.5822234,30.967 L78.5822234,33.104 Z M73.8450888,30.967 L75.6801409,30.967 C75.9791494,31.693 76.3421597,32.314 76.7561715,32.802 C75.6517177,32.4352988 74.6529995,31.8055408 73.8460888,30.967 L73.8450888,30.967 Z M73.1530691,30.131 C72.6798393,29.464191 72.3246654,28.7210531 72.1030393,27.934 L74.9111191,27.934 C75.0101219,28.721 75.1681264,29.459 75.3781323,30.131 L73.1530691,30.131 L73.1530691,30.131 Z M71.8360313,26 C71.8360313,25.627 71.8660325,25.26 71.9200341,24.902 L74.8301168,24.902 C74.7795214,25.6331258 74.7795214,26.3668742 74.8301168,27.098 L71.9200341,27.098 C71.8639888,26.7346873 71.8359056,26.3676098 71.8360313,26 L71.8360313,26 Z M73.1530691,21.869 L75.3781323,21.869 C75.1681264,22.541 75.0101219,23.279 74.9111191,24.065 L72.1040393,24.065 C72.325478,23.2786768 72.6803114,22.5362201 73.1530691,21.87 L73.1530691,21.869 Z M76.7551715,19.199 C76.3411597,19.686 75.9781494,20.307 75.6791409,21.033 L73.8450888,21.033 C74.651974,20.1944279 75.6507004,19.5646647 76.7551715,19.198 L76.7551715,19.199 Z M86.9234604,24.902 C86.7278504,23.4864733 86.1547846,22.1497034 85.2644132,21.032 C83.7494936,19.1171056 81.4419581,18.0002077 79.0002353,18 C76.5583086,18.0003015 74.2506816,19.1176122 72.7360573,21.033 C71.6104275,22.4436691 70.9982045,24.1952966 71.000004,26 C71.0034192,27.8041218 71.6150465,29.554397 72.7360573,30.968 C74.2510719,32.882776 76.5585463,33.9996444 79.0002353,34 C81.4421279,33.9995505 83.7496939,32.8822694 85.2644132,30.967 C86.625693,29.2583418 87.2254989,27.0656238 86.9234604,24.902 Z" id="Globe-icon"></path>
		</g>
	</g>
</svg>